inDegrees=yes
name=ik_S52_A11_T02
DataType=double
version=3
OpenSimVersion=4.3-2021-08-27-4bc7ad9
endheader
time	pelvis_tilt	pelvis_list	pelvis_rotation	pelvis_tx	pelvis_ty	pelvis_tz	hip_flexion_r	hip_adduction_r	hip_rotation_r	knee_angle_r	knee_angle_r_beta	ankle_angle_r	subtalar_angle_r	mtp_angle_r	hip_flexion_l	hip_adduction_l	hip_rotation_l	knee_angle_l	knee_angle_l_beta	ankle_angle_l	subtalar_angle_l	mtp_angle_l	lumbar_extension	lumbar_bending	lumbar_rotation	arm_flex_r	arm_add_r	arm_rot_r	elbow_flex_r	pro_sup_r	wrist_flex_r	wrist_dev_r	arm_flex_l	arm_add_l	arm_rot_l	elbow_flex_l	pro_sup_l	wrist_flex_l	wrist_dev_l
5.599999999999969	-1.520915516770903	-1.934678006995001	26.84664774976305	0	0.9399999999999999	0	22.1764960333127	-7.966357092838436	-6.91782051531108	23.70148191777882	0.4136688970671404	0	0	0	22.1764960333127	-7.966357092838436	-6.91782051531108	23.70148191777882	0.4136688970671404	0	0	0	-1.824441679685853	-1.331884244017235	10.3993733038117	65.7303638484436	-14.0393701639887	-2.394174103914577	23.36134511324359	91.18741410297551	0	0	10.3412767857414	-6.861609183204805	-2.677958082485933	8.602358344653064	119.8709810565729	0	0
5.619999999999968	-1.499415365677595	-1.942874049007266	27.13320190853094	0	0.9399999999999999	0	22.19242368848319	-7.970860464001544	-6.922208540642974	23.71875091867969	0.4139702979913903	0	0	0	22.19242368848319	-7.970860464001544	-6.922208540642974	23.71875091867969	0.4139702979913903	0	0	0	-1.808469291910453	-1.350565747887225	10.29279407848621	65.65912444373795	-14.29293082974348	-2.308337060974504	26.53606026363002	89.51967469269044	0	0	10.30320901091944	-6.898109351807384	-2.831826777620706	8.593278471389704	119.8816462093752	0	0
5.639999999999968	-1.474607351603726	-1.945783797343621	27.4075352470029	0	0.9399999999999999	0	22.20964401333041	-7.975734426233165	-6.926956744950662	23.73738617079738	0.4142955444977832	0	0	0	22.20964401333041	-7.975734426233165	-6.926956744950662	23.73738617079738	0.4142955444977832	0	0	0	-1.793066460900075	-1.356034002100048	10.19358094437342	67.97987316225885	-13.91890586151408	-2.072902012149375	24.07244975296831	89.83109063790491	0	0	10.27644118918988	-6.91813975314167	-2.793080332352501	8.592582035827816	119.8482850878873	0	0
5.659999999999967	-1.447771990257294	-1.961238915526598	27.71302059352313	0	0.9399999999999999	0	22.2421487953094	-7.984894302462719	-6.935902511181178	23.77256684354769	0.4149095630703428	0	0	0	22.2421487953094	-7.984894302462719	-6.935902511181178	23.77256684354769	0.4149095630703428	0	0	0	-1.781191987937169	-1.370262512109557	10.05881730358015	70.21270704892818	-13.70794088132901	-1.519439537558954	27.57325367917956	87.62341726198824	0	0	10.26224211701676	-6.945643752958069	-2.7429038085121	8.607539836145177	119.8905046623609	0	0
5.679999999999967	-1.426112512931473	-1.967933641366448	27.97000370371311	0	0.9399999999999999	0	22.25381689312824	-7.988180828396588	-6.939112659931718	23.78519991469963	0.4151300517565829	0	0	0	22.25381689312824	-7.988180828396588	-6.939112659931718	23.78519991469963	0.4151300517565829	0	0	0	-1.770029040904857	-1.376955290895162	9.955818545017683	72.41352219746652	-13.34510325814281	-1.144848181136406	27.96352495209142	86.67060372105865	0	0	10.2525050484183	-6.963607818137377	-2.719253569276133	8.614103266746699	119.8617717308638	0	0
5.699999999999966	-1.407378711594109	-1.983621606130915	28.23671343154356	0	0.9399999999999999	0	22.26523876481099	-7.991394790069489	-6.94225373017919	23.79756585280405	0.4153458780916029	0	0	0	22.26523876481099	-7.991394790069489	-6.94225373017919	23.79756585280405	0.4153458780916029	0	0	0	-1.765515594204041	-1.39179104256332	9.844456815106675	74.54944353396736	-12.92293684205436	-0.8093979483774586	28.38264738542586	85.47005744869244	0	0	10.26565309256821	-7.021406169754732	-2.724390456350323	8.626615889688306	119.8626276981847	0	0
5.719999999999966	-1.399311155037769	-1.996700157913081	28.44170187947295	0	0.9399999999999999	0	22.27538370049027	-7.99424452337801	-6.945041221310539	23.80855527346223	0.4155376796649749	0	0	0	22.27538370049027	-7.99424452337801	-6.945041221310539	23.80855527346223	0.4155376796649749	0	0	0	-1.770258974194605	-1.397481759174329	9.703095057514203	76.5610366895818	-12.42945823515618	-0.4699386439706516	28.7789059593478	84.34605102006086	0	0	10.28396197035199	-7.054050548621418	-2.84170036495923	8.644451929479404	119.8611126825074	0	0
